<svg width="27" height="27" viewBox="0 0 27 27" fill="none" xmlns="http://www.w3.org/2000/svg">
<g clip-path="url(#clip0_1539_12476)">
<path d="M13.5 0C20.9562 0 27 6.02615 27 13.4606C27 20.6666 21.3211 26.5504 14.1818 26.9044H12.8183C5.67939 26.5504 0 20.6667 0 13.4606C0 6.02615 6.04441 0 13.5 0Z" fill="#FF4A5F"/>
<path d="M12.9582 5.5686C15.9897 5.36615 18.6856 6.86029 20.1859 9.19542C20.4232 9.60284 20.308 10.1208 19.9137 10.3934C19.4981 10.6808 18.9514 10.5541 18.6389 10.1155C17.555 8.59438 15.6629 7.3361 13.5058 7.3361C9.36712 7.3361 6.19124 11.4761 7.85923 15.8122C8.59403 17.7225 10.3356 19.09 12.3631 19.4075C14.8535 19.7971 17.1313 18.914 18.4432 16.995L17.6234 17.1097H16.2088C15.7597 17.1097 15.3441 16.8076 15.2642 16.3671C15.1592 15.7889 15.6023 15.285 16.1634 15.285H21.1304V20.4796C21.1304 20.6138 21.1008 20.7463 21.0436 20.8677C20.9863 20.9891 20.9029 21.0965 20.7993 21.1822C20.6957 21.2678 20.5744 21.3297 20.444 21.3633C20.3136 21.3969 20.1774 21.4015 20.0451 21.3767C19.6032 21.2971 19.3008 20.8823 19.3008 20.435V19.5676L19.4727 18.608C18.0201 20.2811 15.8875 21.3154 13.5058 21.3154C8.97161 21.3154 5.32577 17.5738 5.58965 12.9913C5.81651 9.05317 9.01105 5.83271 12.9582 5.5686Z" fill="white"/>
</g>
<defs>
<clipPath id="clip0_1539_12476">
<rect width="27" height="27" fill="white"/>
</clipPath>
</defs>
</svg>
