<svg xmlns="http://www.w3.org/2000/svg" width="26" height="26" fill="none" xmlns:v="https://vecta.io/nano"><path d="M13 7a6 6 0 0 0-5.543 3.704 6 6 0 0 0 1.301 6.539 6 6 0 0 0 6.539 1.301A6 6 0 0 0 19 13a6 6 0 0 0-6-6zm0 10a4 4 0 0 1-3.696-2.469 4 4 0 0 1 .867-4.359 4 4 0 0 1 4.359-.867A4 4 0 0 1 17 13c-.003 1.06-.426 2.075-1.175 2.825S14.06 16.997 13 17zM18.5.5h-11a7 7 0 0 0-7 7v11a7 7 0 0 0 7 7h11a7 7 0 0 0 7-7v-11a7 7 0 0 0-7-7zm5 18a5 5 0 0 1-1.465 3.535A5 5 0 0 1 18.5 23.5h-11a5 5 0 0 1-3.536-1.465A5 5 0 0 1 2.5 18.5v-11a5 5 0 0 1 5-5h11a5 5 0 0 1 3.535 1.464A5 5 0 0 1 23.5 7.5v11zM21 6.5a1.5 1.5 0 0 1-.926 1.386 1.5 1.5 0 0 1-1.635-.325 1.5 1.5 0 0 1-.325-1.635A1.5 1.5 0 0 1 19.5 5 1.5 1.5 0 0 1 21 6.5z" fill="gray"/></svg>